# xmcd
#
# Track frame offsets: 
#        150
#        10418
#        22228
#        34847
#        48833
#        61197
#        74423
#        84256
#        93709
#        106428
#        118978
#        129116
#        139297
#        151265
#        164017
#        174947
#        189437
#        201078
#        212911
#        227299
#        238936
#        251092
#        261885
#        274472
#        288386
#
# Disc length: 4010 seconds
#
# Revision: 0
# Processed by: cddbd v1.5.2PL0 Copyright (c) Steve Scherf et al.
# Submitted via: ExactAudioCopy v1.0b1
#
DISCID=720fa819
DTITLE=Wade Mainer and the Sons of the Mountaineers - Classic Sides 1937
DTITLE=1941 Disc 3
DYEAR=2010
DGENRE=Bluegrass
TTITLE0=North Carolina Moon
TTITLE1=More Good Women Gone Wrong
TTITLE2=Sparkling Blue Eyes
TTITLE3=We Will Miss Him
TTITLE4=I Left My Home in the Mountains
TTITLE5=I Met Her at a Ball One Night
TTITLE6=You May Forsake Me
TTITLE7=Look on and Cry
TTITLE8=One Little Kiss
TTITLE9=Mama Don't Make Me Go to Bed
TTITLE10=Crying Holy
TTITLE11=Heaven Bells Are Ringing
TTITLE12=Sparkling Blue Eyes No. 2
TTITLE13=The Poor Drunkard's Dream
TTITLE14=Were You There
TTITLE15=The Gospel Cannonball
TTITLE16=The Great and Final Judgement
TTITLE17=What a Wonderful Saviour Is He
TTITLE18=Why Not Make Heaven Your Home
TTITLE19=Mansions in the Sky
TTITLE20=Not a Word of That Be Said
TTITLE21=Drifting Through an Unfriendly World
TTITLE22=Shake My Mother's Hand for Me
TTITLE23=Anywhere Is Home
TTITLE24=I Can Tell You the Time
EXTD=
EXTT0=
EXTT1=
EXTT2=
EXTT3=
EXTT4=
EXTT5=
EXTT6=
EXTT7=
EXTT8=
EXTT9=
EXTT10=
EXTT11=
EXTT12=
EXTT13=
EXTT14=
EXTT15=
EXTT16=
EXTT17=
EXTT18=
EXTT19=
EXTT20=
EXTT21=
EXTT22=
EXTT23=
EXTT24=
PLAYORDER=
